<svg width="20" height="20" viewBox="0 0 20 20" fill="none" xmlns="http://www.w3.org/2000/svg">
<g id="IPR">
<path id="Vector" fill-rule="evenodd" clip-rule="evenodd" d="M15 2.50002C15 2.03978 14.6269 1.66669 14.1667 1.66669H5.84004C5.17672 1.66778 4.54079 1.93131 4.07112 2.39973C3.60146 2.86814 3.33624 3.50337 3.33337 4.16669V16.6667C3.33337 17.1087 3.50897 17.5326 3.82153 17.8452C4.13409 18.1578 4.55801 18.3334 5.00004 18.3334H15.6667C16.219 18.3334 16.6667 17.8856 16.6667 17.3334V6.00002C16.6667 5.44773 16.219 5.00002 15.6667 5.00002H5.84004C5.61903 5.00002 5.40707 4.91222 5.25079 4.75594C5.0945 4.59966 5.00671 4.3877 5.00671 4.16669C5.00671 3.94567 5.0945 3.73371 5.25079 3.57743C5.40707 3.42115 5.61903 3.33335 5.84004 3.33335H14.1667C14.6269 3.33335 15 2.96026 15 2.50002Z" fill="#0E0E0E"/>
</g>
</svg>
