<svg width="20" height="20" viewBox="0 0 20 20" fill="none" xmlns="http://www.w3.org/2000/svg">
<g id="skills">
<path id="Vector" d="M6.66671 2.5C6.44569 2.5 6.23373 2.5878 6.07745 2.74408C5.92117 2.90036 5.83337 3.11232 5.83337 3.33333V7.5C5.83337 7.72101 5.92117 7.93297 6.07745 8.08926C6.23373 8.24554 6.44569 8.33333 6.66671 8.33333H9.16671V10H4.16671C3.72468 10 3.30076 10.1756 2.9882 10.4882C2.67564 10.8007 2.50004 11.2246 2.50004 11.6667V13.3333H1.66671C1.44569 13.3333 1.23373 13.4211 1.07745 13.5774C0.921171 13.7337 0.833374 13.9457 0.833374 14.1667V16.6667C0.833374 16.8877 0.921171 17.0996 1.07745 17.2559C1.23373 17.4122 1.44569 17.5 1.66671 17.5H5.00004C5.22105 17.5 5.43302 17.4122 5.5893 17.2559C5.74558 17.0996 5.83337 16.8877 5.83337 16.6667V14.1667C5.83337 13.9457 5.74558 13.7337 5.5893 13.5774C5.43302 13.4211 5.22105 13.3333 5.00004 13.3333H4.16671V11.6667H15.8334V13.3333H15C14.779 13.3333 14.5671 13.4211 14.4108 13.5774C14.2545 13.7337 14.1667 13.9457 14.1667 14.1667V16.6667C14.1667 16.8877 14.2545 17.0996 14.4108 17.2559C14.5671 17.4122 14.779 17.5 15 17.5H18.3334C18.5544 17.5 18.7663 17.4122 18.9226 17.2559C19.0789 17.0996 19.1667 16.8877 19.1667 16.6667V14.1667C19.1667 13.9457 19.0789 13.7337 18.9226 13.5774C18.7663 13.4211 18.5544 13.3333 18.3334 13.3333H17.5V11.6667C17.5 11.2246 17.3244 10.8007 17.0119 10.4882C16.6993 10.1756 16.2754 10 15.8334 10H10.8334V8.33333H13.3334C13.5544 8.33333 13.7663 8.24554 13.9226 8.08926C14.0789 7.93297 14.1667 7.72101 14.1667 7.5V3.33333C14.1667 3.11232 14.0789 2.90036 13.9226 2.74408C13.7663 2.5878 13.5544 2.5 13.3334 2.5H6.66671Z" fill="#0E0E0E"/>
<path id="Vector_2" d="M7.5 14.1666C7.5 13.9456 7.5878 13.7337 7.74408 13.5774C7.90036 13.4211 8.11232 13.3333 8.33333 13.3333H11.6667C11.8877 13.3333 12.0996 13.4211 12.2559 13.5774C12.4122 13.7337 12.5 13.9456 12.5 14.1666V16.6666C12.5 16.8877 12.4122 17.0996 12.2559 17.2559C12.0996 17.4122 11.8877 17.5 11.6667 17.5H8.33333C8.11232 17.5 7.90036 17.4122 7.74408 17.2559C7.5878 17.0996 7.5 16.8877 7.5 16.6666V14.1666Z" fill="#0E0E0E"/>
</g>
</svg>
