<svg width="302" height="273" viewBox="0 0 302 273" fill="none" xmlns="http://www.w3.org/2000/svg">
<path opacity="0.2" fill-rule="evenodd" clip-rule="evenodd" d="M155 310C240.604 310 310 240.604 310 155C310 69.3959 240.604 0 155 0C69.3959 0 0 69.3959 0 155C0 240.604 69.3959 310 155 310ZM231.9 246.318C253.054 230.14 268.225 207.383 275.024 181.634L223.789 168.107C219.993 182.485 211.521 195.193 199.708 204.227C187.896 213.262 173.413 218.11 158.542 218.008C143.671 217.906 129.256 212.861 117.568 203.666C105.88 194.471 97.5823 181.649 93.9828 167.219L42.5681 180.045C49.0141 205.885 63.8728 228.846 84.8037 245.313C105.735 261.779 131.549 270.815 158.18 270.997C184.811 271.179 210.746 262.497 231.9 246.318Z" fill="#838383"/>
</svg>
