<svg width="24" height="24" viewBox="0 0 24 24" fill="none" xmlns="http://www.w3.org/2000/svg">
<g id="bell">
<path id="Vector" fill-rule="evenodd" clip-rule="evenodd" d="M3 9.17099L14.829 21L15.755 20.331L15.943 19.266C16.193 17.8529 16.8713 16.5508 17.886 15.536L19.178 14.243C19.7586 13.664 20.2186 12.9755 20.5314 12.2175C20.8441 11.4595 21.0034 10.647 21 9.82699C21 6.29699 17.688 2.99999 14.173 2.99999C13.353 2.99658 12.5405 3.15585 11.7825 3.4686C11.0245 3.78135 10.336 4.24136 9.757 4.82199L8.464 6.11399C7.44922 7.12869 6.1471 7.80698 4.734 8.05699L3.67 8.24499L3 9.17099ZM5.663 18.249C5.89497 18.481 6.17036 18.665 6.47346 18.7906C6.77656 18.9162 7.10142 18.9808 7.4295 18.9808C7.75758 18.9808 8.08244 18.9162 8.38554 18.7906C8.68864 18.665 8.96403 18.481 9.196 18.249L5.663 14.716C5.431 14.948 5.24696 15.2234 5.12139 15.5265C4.99583 15.8296 4.93121 16.1544 4.93121 16.4825C4.93121 16.8106 4.99583 17.1354 5.12139 17.4385C5.24696 17.7416 5.431 18.017 5.663 18.249Z" fill="#0E0E0E"/>
</g>
</svg>
