<svg width="170" height="40" viewBox="0 0 170 40" fill="none" xmlns="http://www.w3.org/2000/svg">
<path fill-rule="evenodd" clip-rule="evenodd" d="M20 40C31.0457 40 40 31.0457 40 20C40 8.9543 31.0457 0 20 0C8.9543 0 0 8.9543 0 20C0 31.0457 8.9543 40 20 40ZM29.9163 31.812C32.6487 29.7222 34.6083 26.7829 35.4864 23.4569L28.8686 21.7096C28.3783 23.5669 27.284 25.2082 25.7582 26.3752C24.2324 27.5421 22.3617 28.1684 20.4408 28.1552C18.52 28.1421 16.6581 27.4903 15.1483 26.3026C13.6386 25.1149 12.5669 23.4588 12.1019 21.595L5.46088 23.2517C6.29349 26.5893 8.21273 29.5552 10.9163 31.6821C13.6199 33.809 16.9542 34.9761 20.394 34.9996C23.8339 35.0232 27.1838 33.9017 29.9163 31.812Z" fill="#EF3124"/>
<path d="M64.3682 27L63.0682 24.08H55.9082L54.6082 27H51.9082L58.2882 12.74H60.8282L67.2282 27H64.3682ZM56.9282 21.76H62.0482L59.4882 16.02L56.9282 21.76ZM68.8363 27V12.28H71.3963V27H68.8363ZM81.9938 19.04H78.3738V27H75.8138V19.04H73.0338V16.88H75.8138V15.4C75.8138 13.32 76.9405 12.28 79.1938 12.28H83.5538V14.32H79.9738C78.9072 14.32 78.3738 14.8467 78.3738 15.9V16.88H81.9938V19.04ZM91.0343 27V25.4C90.941 25.5467 90.841 25.7 90.7343 25.86C90.001 26.7667 88.961 27.22 87.6143 27.22C86.1476 27.22 84.9876 26.7067 84.1343 25.68C83.281 24.6533 82.8543 23.4067 82.8543 21.94C82.8543 20.4467 83.2876 19.1933 84.1543 18.18C85.0343 17.1667 86.1943 16.66 87.6343 16.66C88.5143 16.66 89.321 16.8933 90.0543 17.36C90.4543 17.6533 90.7743 18 91.0143 18.4V16.88H93.5743V27H91.0343ZM91.0543 21.94C91.0543 21.0733 90.801 20.3533 90.2943 19.78C89.801 19.1933 89.1343 18.9 88.2943 18.9C87.4276 18.9 86.7343 19.1933 86.2143 19.78C85.7076 20.3533 85.4543 21.0733 85.4543 21.94C85.4543 22.86 85.7143 23.58 86.2343 24.1C86.4876 24.3933 86.7876 24.6067 87.1343 24.74C87.481 24.9 87.8676 24.98 88.2943 24.98C89.1343 24.98 89.801 24.6867 90.2943 24.1C90.801 23.5 91.0543 22.78 91.0543 21.94ZM101.13 27V12.8H108.97C110.503 12.8 111.71 13.1533 112.59 13.86C113.483 14.5533 113.93 15.6467 113.93 17.14C113.93 18.6067 113.477 19.7133 112.57 20.46C111.677 21.1933 110.477 21.56 108.97 21.56H103.81V27H101.13ZM108.83 15.2H103.81V19.16H108.83C109.523 19.16 110.083 19 110.51 18.68C110.95 18.3467 111.17 17.8467 111.17 17.18C111.17 15.86 110.39 15.2 108.83 15.2ZM120.045 16.62C121.672 16.62 122.959 17.1333 123.905 18.16C124.865 19.1733 125.345 20.48 125.345 22.08V22.36H117.305C117.345 23.16 117.645 23.8267 118.205 24.36C118.765 24.88 119.445 25.14 120.245 25.14C120.659 25.14 121.005 25.0933 121.285 25C121.925 24.8267 122.399 24.5067 122.705 24.04H125.225C125.119 24.6933 124.799 25.2667 124.265 25.76C123.745 26.2533 123.139 26.6333 122.445 26.9C121.832 27.14 121.099 27.26 120.245 27.26C118.645 27.26 117.325 26.7667 116.285 25.78C115.259 24.78 114.745 23.5 114.745 21.94C114.745 20.3667 115.239 19.0867 116.225 18.1C117.225 17.1133 118.499 16.62 120.045 16.62ZM120.045 18.6C119.379 18.6 118.812 18.7733 118.345 19.12C117.879 19.4667 117.559 19.96 117.385 20.6H122.665C122.479 19.96 122.159 19.4667 121.705 19.12C121.252 18.7733 120.699 18.6 120.045 18.6ZM132.086 16.62C133.646 16.62 134.939 17.1267 135.966 18.14C137.006 19.14 137.526 20.4067 137.526 21.94C137.526 23.4867 136.999 24.76 135.946 25.76C134.906 26.76 133.619 27.26 132.086 27.26C130.526 27.26 129.226 26.7533 128.186 25.74C127.146 24.7267 126.626 23.46 126.626 21.94C126.626 20.38 127.146 19.1067 128.186 18.12C129.239 17.12 130.539 16.62 132.086 16.62ZM132.086 24.98C132.952 24.98 133.646 24.6867 134.166 24.1C134.686 23.5133 134.946 22.7933 134.946 21.94C134.946 21.0867 134.686 20.36 134.166 19.76C133.899 19.4933 133.599 19.28 133.266 19.12C132.892 18.9733 132.499 18.9 132.086 18.9C131.246 18.9 130.552 19.2 130.006 19.8C129.472 20.3867 129.206 21.1 129.206 21.94C129.206 22.7933 129.479 23.5133 130.026 24.1C130.572 24.6867 131.259 24.98 132.086 24.98ZM142.077 25.46V31.24H139.557V16.88H142.097V18.48C142.137 18.3733 142.244 18.2267 142.417 18.04C142.777 17.5867 143.237 17.2467 143.797 17.02C144.371 16.78 144.964 16.66 145.577 16.66C147.057 16.66 148.224 17.1733 149.077 18.2C149.944 19.2133 150.377 20.46 150.377 21.94C150.377 23.4467 149.937 24.7067 149.057 25.72C148.191 26.72 147.031 27.22 145.577 27.22C144.871 27.22 144.197 27.0667 143.557 26.76C142.917 26.4533 142.424 26.02 142.077 25.46ZM142.817 19.78C142.311 20.3533 142.057 21.0733 142.057 21.94C142.057 22.8067 142.317 23.5333 142.837 24.12C143.371 24.6933 144.064 24.98 144.917 24.98C145.784 24.98 146.477 24.6933 146.997 24.12C147.531 23.5333 147.797 22.8067 147.797 21.94C147.797 20.5933 147.237 19.6533 146.117 19.12C145.744 18.9733 145.344 18.9 144.917 18.9C144.037 18.9 143.337 19.1933 142.817 19.78ZM152.474 27V12.28H155.034V27H152.474ZM162.391 16.62C164.018 16.62 165.305 17.1333 166.251 18.16C167.211 19.1733 167.691 20.48 167.691 22.08V22.36H159.651C159.691 23.16 159.991 23.8267 160.551 24.36C161.111 24.88 161.791 25.14 162.591 25.14C163.005 25.14 163.351 25.0933 163.631 25C164.271 24.8267 164.745 24.5067 165.051 24.04H167.571C167.465 24.6933 167.145 25.2667 166.611 25.76C166.091 26.2533 165.485 26.6333 164.791 26.9C164.178 27.14 163.445 27.26 162.591 27.26C160.991 27.26 159.671 26.7667 158.631 25.78C157.605 24.78 157.091 23.5 157.091 21.94C157.091 20.3667 157.585 19.0867 158.571 18.1C159.571 17.1133 160.845 16.62 162.391 16.62ZM162.391 18.6C161.725 18.6 161.158 18.7733 160.691 19.12C160.225 19.4667 159.905 19.96 159.731 20.6H165.011C164.825 19.96 164.505 19.4667 164.051 19.12C163.598 18.7733 163.045 18.6 162.391 18.6Z" fill="#0E0E0E"/>
</svg>
