<svg width="24" height="24" viewBox="0 0 24 24" fill="none" xmlns="http://www.w3.org/2000/svg">
<g id="search">
<path id="Vector" fill-rule="evenodd" clip-rule="evenodd" d="M10.5442 3C9.35539 3.00036 8.18352 3.28165 7.1241 3.82094C6.06468 4.36023 5.14771 5.14226 4.44794 6.10326C3.74817 7.06426 3.28541 8.17704 3.09739 9.35086C2.90938 10.5247 3.00143 11.7263 3.36603 12.8578C3.73064 13.9893 4.35749 15.0186 5.19547 15.8618C6.03345 16.705 7.05884 17.3382 8.18804 17.7099C9.31724 18.0815 10.5183 18.181 11.6932 18.0003C12.8682 17.8196 13.9838 17.3638 14.9492 16.67L20.2802 22L22.0002 20.28L16.6702 14.95C17.4811 13.8229 17.9653 12.4939 18.0693 11.1092C18.1734 9.72462 17.8932 8.33815 17.2598 7.10253C16.6264 5.86691 15.6642 4.83007 14.4793 4.10621C13.2944 3.38236 11.9327 2.99957 10.5442 3ZM5.43418 10.544C5.43418 9.18861 5.9726 7.88874 6.93101 6.93033C7.88941 5.97193 9.18929 5.4335 10.5447 5.4335C11.9001 5.4335 13.1999 5.97193 14.1583 6.93033C15.1167 7.88874 15.6552 9.18861 15.6552 10.544C15.6552 11.8994 15.1167 13.1993 14.1583 14.1577C13.1999 15.1161 11.9001 15.6545 10.5447 15.6545C9.18929 15.6545 7.88941 15.1161 6.93101 14.1577C5.9726 13.1993 5.43418 11.8994 5.43418 10.544Z" fill="#838383"/>
</g>
</svg>
