<svg width="24" height="24" viewBox="0 0 24 24" fill="none" xmlns="http://www.w3.org/2000/svg">
<path d="M10 5C10.0001 4.73729 10.0519 4.47717 10.1525 4.23448C10.2531 3.99179 10.4005 3.7713 10.5863 3.58558C10.7721 3.39986 10.9927 3.25256 11.2354 3.15209C11.4781 3.05161 11.7383 2.99993 12.001 3C12.2637 3.00007 12.5238 3.05188 12.7665 3.15247C13.0092 3.25307 13.2297 3.40048 13.4154 3.58629C13.6011 3.7721 13.7484 3.99267 13.8489 4.2354C13.9494 4.47814 14.0011 4.73829 14.001 5.001C14.0009 5.53157 13.79 6.04035 13.4147 6.41542C13.0395 6.79049 12.5306 7.00113 12 7.001C11.4694 7.00087 10.9607 6.78997 10.5856 6.41471C10.2105 6.03945 9.99987 5.53057 10 5ZM10 12C10.0001 11.7373 10.0519 11.4772 10.1525 11.2345C10.2531 10.9918 10.4005 10.7713 10.5863 10.5856C10.7721 10.3999 10.9927 10.2526 11.2354 10.1521C11.4781 10.0516 11.7383 9.99993 12.001 10C12.2637 10.0001 12.5238 10.0519 12.7665 10.1525C13.0092 10.2531 13.2297 10.4005 13.4154 10.5863C13.6011 10.7721 13.7484 10.9927 13.8489 11.2354C13.9494 11.4781 14.0011 11.7383 14.001 12.001C14.0009 12.5316 13.79 13.0403 13.4147 13.4154C13.0395 13.7905 12.5306 14.0011 12 14.001C11.4694 14.0009 10.9607 13.79 10.5856 13.4147C10.2105 13.0395 9.99987 12.5306 10 12ZM10 19C10.0001 18.7373 10.0519 18.4772 10.1525 18.2345C10.2531 17.9918 10.4005 17.7713 10.5863 17.5856C10.7721 17.3999 10.9927 17.2526 11.2354 17.1521C11.4781 17.0516 11.7383 16.9999 12.001 17C12.2637 17.0001 12.5238 17.0519 12.7665 17.1525C13.0092 17.2531 13.2297 17.4005 13.4154 17.5863C13.6011 17.7721 13.7484 17.9927 13.8489 18.2354C13.9494 18.4781 14.0011 18.7383 14.001 19.001C14.0009 19.5316 13.79 20.0403 13.4147 20.4154C13.0395 20.7905 12.5306 21.0011 12 21.001C11.4694 21.0009 10.9607 20.79 10.5856 20.4147C10.2105 20.0395 9.99987 19.5306 10 19Z" fill="#0E0E0E"/>
</svg>
