<svg width="24" height="24" viewBox="0 0 24 24" fill="none" xmlns="http://www.w3.org/2000/svg">
<path d="M12.497 13.938C12.2016 14.013 11.893 14.0196 11.5946 13.9573C11.2963 13.8951 11.016 13.7656 10.7753 13.5787C10.5345 13.3918 10.3395 13.1525 10.2052 12.8789C10.0708 12.6054 10.0007 12.3048 9.99998 12C10.0001 11.6258 10.1052 11.2592 10.3033 10.9418C10.5014 10.6244 10.7846 10.3689 11.1207 10.2044C11.4568 10.0399 11.8322 9.97295 12.2044 10.0112C12.5766 10.0495 12.9307 10.1913 13.2262 10.4208C13.5218 10.6502 13.7471 10.9579 13.8765 11.309C14.006 11.6601 14.0343 12.0404 13.9583 12.4068C13.8824 12.7731 13.7051 13.1109 13.4468 13.3815C13.1885 13.6522 12.8594 13.845 12.497 13.938ZM20.497 13.938C20.2016 14.013 19.893 14.0196 19.5946 13.9573C19.2963 13.8951 19.016 13.7656 18.7753 13.5787C18.5345 13.3918 18.3395 13.1525 18.2052 12.8789C18.0708 12.6054 18.0007 12.3048 18 12C18.0001 11.6258 18.1052 11.2592 18.3033 10.9418C18.5014 10.6244 18.7846 10.3689 19.1207 10.2044C19.4568 10.0399 19.8322 9.97295 20.2044 10.0112C20.5766 10.0495 20.9307 10.1913 21.2262 10.4208C21.5218 10.6502 21.7471 10.9579 21.8765 11.309C22.006 11.6601 22.0343 12.0404 21.9583 12.4068C21.8824 12.7731 21.7051 13.1109 21.4468 13.3815C21.1885 13.6522 20.8594 13.845 20.497 13.938ZM4.49698 13.938C4.24248 14.0033 3.97761 14.0178 3.71751 13.9807C3.4574 13.9436 3.20715 13.8556 2.98104 13.7218C2.75493 13.588 2.55739 13.4109 2.3997 13.2008C2.242 12.9906 2.12725 12.7515 2.06198 12.497C1.99671 12.2425 1.98221 11.9776 2.01931 11.7175C2.0564 11.4574 2.14437 11.2072 2.27818 10.981C2.41198 10.7549 2.58902 10.5574 2.79917 10.3997C3.00932 10.242 3.24848 10.1273 3.50298 10.062C4.01697 9.93017 4.56227 10.0079 5.01892 10.2782C5.47557 10.5484 5.80617 10.989 5.93798 11.503C6.06979 12.017 5.99203 12.5623 5.72179 13.0189C5.45155 13.4756 5.01097 13.8062 4.49698 13.938Z" fill="#0E0E0E"/>
</svg>
