<svg width="24" height="24" viewBox="0 0 24 24" fill="none" xmlns="http://www.w3.org/2000/svg">
<g id="twitter">
<path id="Vector" d="M17.6602 8.22503C17.7772 8.18003 17.8692 8.08203 17.9632 8.01003C18.3832 7.68303 18.6562 7.25403 18.8573 6.70403L18.5152 6.89303C18.1622 7.07403 17.5632 7.33303 17.1022 7.37403C16.5602 6.87403 15.9902 6.48203 14.9222 6.50103C14.8092 6.51303 14.6973 6.52803 14.5863 6.54103C14.3767 6.58444 14.1718 6.64773 13.9742 6.73003C13.1912 7.07303 12.6592 7.71103 12.4132 8.59703C12.3152 8.95003 12.2752 9.53903 12.3993 9.90203C11.9817 9.89741 11.5661 9.84336 11.1613 9.74103C9.70325 9.37803 8.79625 8.89003 7.78925 8.09603C7.48677 7.864 7.21137 7.59867 6.96825 7.30503C6.89225 7.21003 6.77325 7.12703 6.71925 7.01403L6.70625 7.00803C6.57802 7.23619 6.47859 7.47938 6.41025 7.73203C6.13725 8.79003 6.56925 9.67703 7.02925 10.254C7.16825 10.428 7.39525 10.537 7.53425 10.7H7.54925C7.44425 10.739 7.26325 10.685 7.17225 10.666C6.97448 10.6313 6.78057 10.5774 6.59325 10.505L6.31125 10.369C6.30725 11.537 6.89225 12.297 7.61025 12.75C7.84325 12.897 8.17225 13.097 8.51225 13.115C8.33025 13.27 7.55025 13.199 7.28025 13.168C7.61925 14.046 8.13825 14.629 9.03025 14.947C9.26025 15.029 9.54125 15.101 9.85225 15.095C9.68825 15.293 9.33625 15.453 9.10525 15.59C8.62725 15.871 8.07325 16.053 7.45025 16.191C7.19825 16.246 6.93425 16.235 6.66225 16.279C6.36225 16.328 6.04825 16.253 5.78125 16.245L6.02325 16.394C6.26925 16.545 6.52625 16.678 6.80325 16.8C7.30325 17.02 7.83525 17.187 8.42425 17.334C9.61325 17.631 11.2902 17.498 12.3272 17.173C15.2172 16.266 17.0423 14.146 17.7313 11.025C17.8493 10.488 17.8662 9.87803 17.8592 9.23903L18.2873 8.89503C18.6423 8.60803 18.9762 8.20803 19.2222 7.81303V7.80603C18.7533 7.95403 18.2592 8.22603 17.6602 8.23203V8.22503Z" fill="#0E0E0E"/>
<path id="Vector_2" d="M18.5 1H5.5C4.30693 1.00132 3.16311 1.47585 2.31948 2.31948C1.47585 3.16311 1.00132 4.30693 1 5.5V18.5C1 20.981 3.019 23 5.5 23H18.5C20.981 23 23 20.981 23 18.5V5.5C23 3.019 20.981 1 18.5 1ZM22 18.5C22 20.43 20.43 22 18.5 22H5.5C3.57 22 2 20.43 2 18.5V5.5C2 3.57 3.57 2 5.5 2H18.5C20.43 2 22 3.57 22 5.5V18.5Z" fill="#0E0E0E"/>
</g>
</svg>
