<svg width="24" height="24" viewBox="0 0 24 24" fill="none" xmlns="http://www.w3.org/2000/svg">
<g id="vk">
<path id="Vector" d="M18.5 1H5.5C4.30693 1.00132 3.16311 1.47585 2.31948 2.31948C1.47585 3.16311 1.00132 4.30693 1 5.5V18.5C1 20.981 3.019 23 5.5 23H18.5C20.981 23 23 20.981 23 18.5V5.5C23 3.019 20.981 1 18.5 1ZM22 18.5C22 20.43 20.43 22 18.5 22H5.5C3.57 22 2 20.43 2 18.5V5.5C2 3.57 3.57 2 5.5 2H18.5C20.43 2 22 3.57 22 5.5V18.5Z" fill="#0E0E0E"/>
<path id="Vector_2" d="M15.148 11.424V11.36C15.664 11.145 16.068 10.809 16.361 10.353C16.654 9.896 16.8 9.375 16.8 8.79C16.8 8.285 16.694 7.839 16.482 7.452C16.2595 7.05474 15.9244 6.7322 15.519 6.525C15.1215 6.31005 14.6892 6.16686 14.242 6.102C13.788 6.034 13.12 6 12.239 6H8V18H12.803C13.636 18 14.322 17.925 14.862 17.774C15.4033 17.6232 15.909 17.3655 16.349 17.016C16.73 16.721 17.034 16.347 17.26 15.896C17.486 15.445 17.598 14.921 17.598 14.324C17.598 13.507 17.375 12.859 16.929 12.378C16.483 11.898 15.89 11.58 15.148 11.424ZM10.998 8.2H11.208C11.745 8.2 12.149 8.204 12.421 8.212C12.692 8.22 12.927 8.267 13.126 8.353C13.336 8.444 13.49 8.592 13.589 8.796C13.688 9 13.738 9.199 13.738 9.392C13.738 9.655 13.692 9.886 13.601 10.085C13.51 10.284 13.343 10.44 13.101 10.552C12.881 10.654 12.667 10.711 12.46 10.721C12.253 10.732 11.892 10.737 11.376 10.737H10.997V8.2H10.998ZM14.306 15.046C14.1708 15.2824 13.9592 15.4658 13.706 15.566C13.4159 15.6951 13.1042 15.769 12.787 15.784C12.486 15.795 11.943 15.8 11.159 15.8H10.998V12.794H11.554C12.091 12.794 12.52 12.798 12.839 12.806C13.159 12.814 13.41 12.853 13.592 12.923C13.893 13.031 14.119 13.189 14.269 13.398C14.419 13.608 14.495 13.898 14.495 14.268C14.5003 14.5393 14.4352 14.8074 14.306 15.046Z" fill="#0E0E0E"/>
</g>
</svg>
