<svg width="24" height="24" viewBox="0 0 24 24" fill="none" xmlns="http://www.w3.org/2000/svg">
<path fill-rule="evenodd" clip-rule="evenodd" d="M12.78 3.63001C13.6297 2.80771 14.7687 2.35231 15.9511 2.36203C17.1336 2.37175 18.2649 2.84579 19.101 3.68195C19.9372 4.5181 20.4112 5.64938 20.4209 6.83185C20.4307 8.01431 19.9753 9.15323 19.153 10.003L11.733 17.423C11.4834 17.6806 11.185 17.886 10.8553 18.0273C10.5255 18.1685 10.171 18.2428 9.81233 18.2457C9.45363 18.2486 9.09794 18.1802 8.76594 18.0443C8.43395 17.9085 8.13228 17.708 7.87851 17.4545C7.62473 17.201 7.42391 16.8995 7.28774 16.5677C7.15156 16.2358 7.08275 15.8802 7.0853 15.5215C7.08785 15.1628 7.16173 14.8082 7.30262 14.4783C7.44351 14.1484 7.6486 13.8499 7.90596 13.6L14.811 6.69501L16.084 7.96801L9.17996 14.87C9.01022 15.0398 8.91486 15.27 8.91486 15.51C8.91486 15.7501 9.01022 15.9803 9.17996 16.15C9.3497 16.3197 9.57991 16.4151 9.81996 16.4151C10.06 16.4151 10.2902 16.3197 10.46 16.15L17.88 8.73001C18.1397 8.48061 18.347 8.1819 18.4899 7.85137C18.6327 7.52084 18.7082 7.16514 18.7119 6.80508C18.7155 6.44503 18.6473 6.08786 18.5113 5.75448C18.3752 5.42111 18.174 5.11823 17.9194 4.86359C17.6648 4.60894 17.362 4.40765 17.0287 4.27148C16.6953 4.13532 16.3382 4.06703 15.9781 4.07061C15.618 4.07419 15.2623 4.14956 14.9318 4.29232C14.6012 4.43508 14.3024 4.64236 14.053 4.90201L6.63796 12.316C5.79033 13.1638 5.31419 14.3135 5.31428 15.5124C5.31437 16.7112 5.7907 17.8609 6.63846 18.7085C7.48623 19.5561 8.63599 20.0323 9.83481 20.0322C11.0336 20.0321 12.1833 19.5558 13.031 18.708L16.124 15.615C17.3498 14.389 18.8443 13.4653 20.489 12.917L21.059 14.624C19.6791 15.0838 18.4254 15.8586 17.397 16.887L14.303 19.981C13.7179 20.5761 13.0208 21.0495 12.2519 21.3737C11.4829 21.698 10.6574 21.8668 9.82286 21.8703C8.98835 21.8739 8.1614 21.7121 7.38973 21.3944C6.61807 21.0766 5.91697 20.6092 5.32691 20.0191C4.73685 19.4289 4.2695 18.7278 3.95184 17.9561C3.63418 17.1844 3.4725 16.3574 3.47613 15.5229C3.47976 14.6884 3.64863 13.8629 3.97299 13.0939C4.29736 12.325 4.77079 11.628 5.36596 11.043L12.78 3.63001Z" fill="#0E0E0E"/>
</svg>
