<svg width="20" height="20" viewBox="0 0 20 20" fill="none" xmlns="http://www.w3.org/2000/svg">
<g id="employees" clip-path="url(#clip0_1140_5407)">
<path id="Vector" d="M9.34583 5.88583C9.34583 4.20833 8.66833 2.5 6.6375 2.5C4.60583 2.5 3.92917 4.1775 3.92917 5.88583C3.92917 7.59417 5.12917 8.9325 6.6375 8.9325C8.14583 8.9325 9.34583 7.56167 9.34583 5.88583ZM13.755 5.83333C15.415 5.83333 15.9683 7.22917 15.9683 8.59917C15.9683 9.96917 14.9875 11.0883 13.755 11.0883C13.3758 11.0883 13.0208 10.985 12.7108 10.8008C12.5847 10.6998 12.4557 10.6022 12.3242 10.5083C11.845 10.055 11.5425 9.37333 11.5425 8.59917C11.5425 7.20417 12.0958 5.83333 13.755 5.83333ZM15 17.5H19.1667V15.77C19.0483 13.7792 16.15 12.72 14.3142 12.5308C14.6608 13.0558 14.945 13.7008 14.9975 14.58L15 14.6292V17.5ZM13.3333 17.5H8.35667L7.5 11.9167L8.38333 10.5967C10.4108 11 11.8083 12.0675 12.5525 12.9617C12.9983 13.4975 13.29 13.9392 13.3333 14.6783V17.5ZM5.83333 11.9167L4.94667 10.5967C2.92167 11.0008 1.52417 12.0675 0.78 12.9617C0.335 13.4975 0.0433333 13.9392 0 14.6783V17.5H4.97333L5.83333 11.9167Z" fill="#0E0E0E"/>
</g>
<defs>
<clipPath id="clip0_1140_5407">
<rect width="20" height="20" fill="white"/>
</clipPath>
</defs>
</svg>
