<svg width="20" height="20" viewBox="0 0 20 20" fill="none" xmlns="http://www.w3.org/2000/svg">
<g id="statistics">
<path id="Vector" d="M9.16667 6.00278C9.16667 6.38695 8.90334 6.71278 8.56084 6.87862C7.99154 7.15594 7.51189 7.58805 7.17688 8.12543C6.84187 8.6628 6.66504 9.2837 6.66667 9.91695C6.66667 11.7769 8.15834 13.2836 10 13.2836C10.6792 13.2836 11.3108 13.0786 11.8383 12.7261C12.155 12.5144 12.5667 12.4544 12.8925 12.6511L15.8908 14.4694C16.3142 14.7253 16.4275 15.2978 16.0908 15.662C15.3157 16.5045 14.3742 17.177 13.3257 17.6369C12.2773 18.0967 11.1449 18.334 10 18.3336C5.39751 18.3336 1.66667 14.5653 1.66667 9.91695C1.66667 5.87028 4.49167 2.49195 8.25751 1.68362C8.73917 1.58028 9.16667 1.97278 9.16667 2.47028V6.00278Z" fill="#0E0E0E"/>
<path id="Vector_2" d="M10.8333 6.00293C10.8333 6.38709 11.0967 6.71293 11.4392 6.87876C12.0571 7.17962 12.5684 7.66225 12.9042 8.26192C13.2401 8.86159 13.3846 9.54963 13.3183 10.2338C13.2833 10.6154 13.425 11.0104 13.75 11.2079L16.7508 13.0263C17.1733 13.2821 17.7267 13.1146 17.8867 12.6429C18.1835 11.7648 18.3344 10.844 18.3333 9.91709C18.3333 5.87209 15.5083 2.49376 11.7425 1.68459C11.2608 1.58126 10.8333 1.97376 10.8333 2.47126V6.00459V6.00293Z" fill="#0E0E0E"/>
</g>
</svg>
